<?xml version="1.0" encoding="iso-8859-1"?>
<!-- Generator: Adobe Illustrator 19.0.0, SVG Export Plug-In . SVG Version: 6.00 Build 0)  -->
<svg version="1.1" id="Layer_1" xmlns="http://www.w3.org/2000/svg" xmlns:xlink="http://www.w3.org/1999/xlink" x="0px" y="0px"
	 viewBox="0 0 512.004 512.004" style="enable-background:new 0 0 512.004 512.004;" xml:space="preserve">
<g>
	<g>
		<g>
			<path d="M457.23,89.258c0-3.917-1.492-7.836-4.485-10.824c-2.982-2.988-6.904-4.485-10.821-4.485H70.081
				c-3.93,0-7.849,1.498-10.836,4.485c-2.988,2.987-4.485,6.909-4.485,10.824v255.928h402.47V89.258z M255.999,82.515
				c2.522,0,4.559,2.04,4.559,4.557c0,2.516-2.038,4.557-4.559,4.557s-4.562-2.04-4.562-4.557
				C251.437,84.555,253.477,82.515,255.999,82.515z M430.985,318.931H81.01V100.194h349.975V318.931z"/>
			<path d="M5.472,418.095h501.056c2.153,0,4.18-1.277,5.061-3.384c0.87-2.099,0.323-4.442-1.195-5.957l-53.161-53H54.76l-53.156,53
				c-1.516,1.516-2.058,3.858-1.188,5.957C1.294,416.817,3.322,418.095,5.472,418.095z M57.522,385.713l14.461-16.835h368.026
				l14.464,16.835c1.085,1.252,1.4,3.072,0.663,4.68c-0.74,1.605-2.322,2.547-3.983,2.547h-142.31l0.801,3.648
				c0.161,0.748,0,1.559-0.525,2.209c-0.515,0.648-1.277,0.975-2.051,0.975H204.914c-0.758,0-1.516-0.328-2.038-0.975
				c-0.52-0.65-0.691-1.462-0.532-2.209l0.806-3.648H60.842c-1.659,0-3.244-0.942-3.978-2.547
				C56.124,388.785,56.436,386.965,57.522,385.713z"/>
			<path d="M300.307,421.377c-0.236,0.525-0.535,1.014-0.906,1.462c-1.124,1.323-2.772,2.089-4.521,2.089h-77.763
				c-1.741,0-3.392-0.768-4.518-2.089c-0.374-0.448-0.678-0.937-0.904-1.462H5.469c-2.035,0-3.937-0.717-5.463-1.938v5.491
				c0,3.361,1.288,6.72,3.848,9.277c2.557,2.565,5.914,3.848,9.28,3.848H498.85c3.364,0,6.735-1.283,9.29-3.848
				c2.563-2.557,3.84-5.919,3.84-9.277v-5.491c-1.508,1.219-3.415,1.938-5.455,1.938H300.307z M46.263,432.582
				c-1.569,0-2.852-1.283-2.852-2.87c0-1.58,1.283-2.862,2.852-2.862c1.585,0,2.862,1.283,2.862,2.862
				C49.125,431.299,47.848,432.582,46.263,432.582z M60.02,432.582c-1.574,0-2.867-1.283-2.867-2.87c0-1.58,1.29-2.862,2.867-2.862
				c1.592,0,2.867,1.283,2.867,2.862C62.888,431.299,61.613,432.582,60.02,432.582z M73.788,432.582c-1.587,0-2.87-1.283-2.87-2.87
				c0-1.58,1.283-2.862,2.87-2.862c1.574,0,2.854,1.283,2.854,2.862C76.64,431.299,75.363,432.582,73.788,432.582z"/>
			<path d="M228.243,171.134c0-5.773,4.703-10.465,10.465-10.465c5.773,0,10.46,4.693,10.46,10.465c0,1.185-0.195,2.332-0.571,3.392
				l3.901,4.091c1.211-2.22,1.902-4.774,1.902-7.48c0-8.658-7.043-15.701-15.693-15.703c-8.653,0-15.695,7.043-15.695,15.7
				c0,7.299,5.005,13.448,11.766,15.194v-5.499C230.954,179.27,228.243,175.512,228.243,171.134z"/>
			<path d="M234.779,199.635v-5.294c-11.11-1.874-19.612-11.564-19.612-23.204c0-12.987,10.555-23.549,23.542-23.549
				s23.547,10.563,23.547,23.549c0,4.954-1.544,9.549-4.175,13.348l3.674,3.858c3.607-4.805,5.732-10.767,5.732-17.208
				c-0.005-15.869-12.905-28.774-28.779-28.774c-15.864,0-28.78,12.905-28.78,28.777
				C209.926,185.67,220.763,197.709,234.779,199.635z"/>
			<path d="M239.005,170.584c-0.189,0.072-0.302,0.251-0.302,0.445v90.486c0,0.184,0.105,0.356,0.287,0.435
				c0.12,0.054,0.256,0.051,0.374,0.01c0.049-0.023,0.09-0.051,0.133-0.09l17.487-15.624c0.046-0.036,0.095-0.061,0.148-0.084
				c0.084-0.031,0.184-0.046,0.287-0.018c0.156,0.036,0.282,0.148,0.328,0.282l11.295,28.237c0.325,0.801,0.947,1.472,1.787,1.841
				c0.86,0.364,1.774,0.346,2.565,0.036l13.775-5.507c0.796-0.328,1.472-0.947,1.841-1.795c0.363-0.852,0.335-1.772,0.031-2.565
				l-11.307-28.234c-0.051-0.143-0.036-0.31,0.056-0.448c0.054-0.079,0.136-0.143,0.215-0.179c0.054-0.018,0.107-0.028,0.166-0.028
				l23.427-0.747c0.054,0,0.107-0.013,0.161-0.031c0.113-0.051,0.21-0.138,0.269-0.269c0.069-0.179,0.031-0.376-0.095-0.512
				l-62.398-65.528C239.405,170.566,239.19,170.507,239.005,170.584z"/>
		</g>
	</g>
</g>
<g>
</g>
<g>
</g>
<g>
</g>
<g>
</g>
<g>
</g>
<g>
</g>
<g>
</g>
<g>
</g>
<g>
</g>
<g>
</g>
<g>
</g>
<g>
</g>
<g>
</g>
<g>
</g>
<g>
</g>
</svg>
